<svg aria-roledescription="flowchart-v2" role="graphics-document document" viewBox="-8 -8 1538.33203125 990" style="max-width: 1538.33203125px;" xmlns="http://www.w3.org/2000/svg" width="100%" id="mermaid-svg-1752737681172-qh2pgf4y5"><style>#mermaid-svg-1752737681172-qh2pgf4y5{font-family:"trebuchet ms",verdana,arial,sans-serif;font-size:16px;fill:rgba(204, 204, 204, 0.87);}#mermaid-svg-1752737681172-qh2pgf4y5 .error-icon{fill:#bf616a;}#mermaid-svg-1752737681172-qh2pgf4y5 .error-text{fill:#bf616a;stroke:#bf616a;}#mermaid-svg-1752737681172-qh2pgf4y5 .edge-thickness-normal{stroke-width:2px;}#mermaid-svg-1752737681172-qh2pgf4y5 .edge-thickness-thick{stroke-width:3.5px;}#mermaid-svg-1752737681172-qh2pgf4y5 .edge-pattern-solid{stroke-dasharray:0;}#mermaid-svg-1752737681172-qh2pgf4y5 .edge-pattern-dashed{stroke-dasharray:3;}#mermaid-svg-1752737681172-qh2pgf4y5 .edge-pattern-dotted{stroke-dasharray:2;}#mermaid-svg-1752737681172-qh2pgf4y5 .marker{fill:rgba(204, 204, 204, 0.87);stroke:rgba(204, 204, 204, 0.87);}#mermaid-svg-1752737681172-qh2pgf4y5 .marker.cross{stroke:rgba(204, 204, 204, 0.87);}#mermaid-svg-1752737681172-qh2pgf4y5 svg{font-family:"trebuchet ms",verdana,arial,sans-serif;font-size:16px;}#mermaid-svg-1752737681172-qh2pgf4y5 .label{font-family:"trebuchet ms",verdana,arial,sans-serif;color:rgba(204, 204, 204, 0.87);}#mermaid-svg-1752737681172-qh2pgf4y5 .cluster-label text{fill:#ffffff;}#mermaid-svg-1752737681172-qh2pgf4y5 .cluster-label span,#mermaid-svg-1752737681172-qh2pgf4y5 p{color:#ffffff;}#mermaid-svg-1752737681172-qh2pgf4y5 .label text,#mermaid-svg-1752737681172-qh2pgf4y5 span,#mermaid-svg-1752737681172-qh2pgf4y5 p{fill:rgba(204, 204, 204, 0.87);color:rgba(204, 204, 204, 0.87);}#mermaid-svg-1752737681172-qh2pgf4y5 .node rect,#mermaid-svg-1752737681172-qh2pgf4y5 .node circle,#mermaid-svg-1752737681172-qh2pgf4y5 .node ellipse,#mermaid-svg-1752737681172-qh2pgf4y5 .node polygon,#mermaid-svg-1752737681172-qh2pgf4y5 .node path{fill:#1a1a1a;stroke:#2a2a2a;stroke-width:1px;}#mermaid-svg-1752737681172-qh2pgf4y5 .flowchart-label text{text-anchor:middle;}#mermaid-svg-1752737681172-qh2pgf4y5 .node .label{text-align:center;}#mermaid-svg-1752737681172-qh2pgf4y5 .node.clickable{cursor:pointer;}#mermaid-svg-1752737681172-qh2pgf4y5 .arrowheadPath{fill:#e5e5e5;}#mermaid-svg-1752737681172-qh2pgf4y5 .edgePath .path{stroke:rgba(204, 204, 204, 0.87);stroke-width:2.0px;}#mermaid-svg-1752737681172-qh2pgf4y5 .flowchart-link{stroke:rgba(204, 204, 204, 0.87);fill:none;}#mermaid-svg-1752737681172-qh2pgf4y5 .edgeLabel{background-color:#1a1a1a99;text-align:center;}#mermaid-svg-1752737681172-qh2pgf4y5 .edgeLabel rect{opacity:0.5;background-color:#1a1a1a99;fill:#1a1a1a99;}#mermaid-svg-1752737681172-qh2pgf4y5 .labelBkg{background-color:rgba(26, 26, 26, 0.5);}#mermaid-svg-1752737681172-qh2pgf4y5 .cluster rect{fill:rgba(64, 64, 64, 0.47);stroke:#30373a;stroke-width:1px;}#mermaid-svg-1752737681172-qh2pgf4y5 .cluster text{fill:#ffffff;}#mermaid-svg-1752737681172-qh2pgf4y5 .cluster span,#mermaid-svg-1752737681172-qh2pgf4y5 p{color:#ffffff;}#mermaid-svg-1752737681172-qh2pgf4y5 div.mermaidTooltip{position:absolute;text-align:center;max-width:200px;padding:2px;font-family:"trebuchet ms",verdana,arial,sans-serif;font-size:12px;background:#88c0d0;border:1px solid #30373a;border-radius:2px;pointer-events:none;z-index:100;}#mermaid-svg-1752737681172-qh2pgf4y5 .flowchartTitleText{text-anchor:middle;font-size:18px;fill:rgba(204, 204, 204, 0.87);}#mermaid-svg-1752737681172-qh2pgf4y5 :root{--mermaid-font-family:"trebuchet ms",verdana,arial,sans-serif;}</style><g><marker orient="auto" markerHeight="12" markerWidth="12" markerUnits="userSpaceOnUse" refY="5" refX="6" viewBox="0 0 10 10" class="marker flowchart" id="mermaid-svg-1752737681172-qh2pgf4y5_flowchart-pointEnd"><path style="stroke-width: 1; stroke-dasharray: 1, 0;" class="arrowMarkerPath" d="M 0 0 L 10 5 L 0 10 z"/></marker><marker orient="auto" markerHeight="12" markerWidth="12" markerUnits="userSpaceOnUse" refY="5" refX="4.5" viewBox="0 0 10 10" class="marker flowchart" id="mermaid-svg-1752737681172-qh2pgf4y5_flowchart-pointStart"><path style="stroke-width: 1; stroke-dasharray: 1, 0;" class="arrowMarkerPath" d="M 0 5 L 10 10 L 10 0 z"/></marker><marker orient="auto" markerHeight="11" markerWidth="11" markerUnits="userSpaceOnUse" refY="5" refX="11" viewBox="0 0 10 10" class="marker flowchart" id="mermaid-svg-1752737681172-qh2pgf4y5_flowchart-circleEnd"><circle style="stroke-width: 1; stroke-dasharray: 1, 0;" class="arrowMarkerPath" r="5" cy="5" cx="5"/></marker><marker orient="auto" markerHeight="11" markerWidth="11" markerUnits="userSpaceOnUse" refY="5" refX="-1" viewBox="0 0 10 10" class="marker flowchart" id="mermaid-svg-1752737681172-qh2pgf4y5_flowchart-circleStart"><circle style="stroke-width: 1; stroke-dasharray: 1, 0;" class="arrowMarkerPath" r="5" cy="5" cx="5"/></marker><marker orient="auto" markerHeight="11" markerWidth="11" markerUnits="userSpaceOnUse" refY="5.2" refX="12" viewBox="0 0 11 11" class="marker cross flowchart" id="mermaid-svg-1752737681172-qh2pgf4y5_flowchart-crossEnd"><path style="stroke-width: 2; stroke-dasharray: 1, 0;" class="arrowMarkerPath" d="M 1,1 l 9,9 M 10,1 l -9,9"/></marker><marker orient="auto" markerHeight="11" markerWidth="11" markerUnits="userSpaceOnUse" refY="5.2" refX="-1" viewBox="0 0 11 11" class="marker cross flowchart" id="mermaid-svg-1752737681172-qh2pgf4y5_flowchart-crossStart"><path style="stroke-width: 2; stroke-dasharray: 1, 0;" class="arrowMarkerPath" d="M 1,1 l 9,9 M 10,1 l -9,9"/></marker><g class="root"><g class="clusters"><g id="网络通信层" class="cluster default flowchart-label"><rect height="221" width="908.0078125" y="241" x="0.171875" ry="0" rx="0" style=""/><g transform="translate(414.17578125, 241)" class="cluster-label"><foreignObject height="24" width="80"><div style="display: inline-block; white-space: nowrap;" xmlns="http://www.w3.org/1999/xhtml"><span class="nodeLabel">网络通信层</span></div></foreignObject></g></g><g id="subGraph1" class="cluster default flowchart-label"><rect height="329" width="874.953125" y="512" x="0" ry="0" rx="0" style=""/><g transform="translate(371.6328125, 512)" class="cluster-label"><foreignObject height="24" width="131.6875"><div style="display: inline-block; white-space: nowrap;" xmlns="http://www.w3.org/1999/xhtml"><span class="nodeLabel">服务端 (M2Engine)</span></div></foreignObject></g></g><g id="subGraph0" class="cluster default flowchart-label"><rect height="974" width="594.15234375" y="0" x="928.1796875" ry="0" rx="0" style=""/><g transform="translate(1160.568359375, 0)" class="cluster-label"><foreignObject height="24" width="129.375"><div style="display: inline-block; white-space: nowrap;" xmlns="http://www.w3.org/1999/xhtml"><span class="nodeLabel">客户端 (MirClient)</span></div></foreignObject></g></g></g><g class="edgePaths"><path marker-end="url(#mermaid-svg-1752737681172-qh2pgf4y5_flowchart-pointEnd)" style="fill:none;" class="edge-thickness-normal edge-pattern-solid flowchart-link LS-C1 LE-C2" id="L-C1-C2-0" d="M1047.855,83L1047.855,87.167C1047.855,91.333,1047.855,99.667,1047.855,107.117C1047.855,114.567,1047.855,121.133,1047.855,124.417L1047.855,127.7"/><path marker-end="url(#mermaid-svg-1752737681172-qh2pgf4y5_flowchart-pointEnd)" style="fill:none;" class="edge-thickness-normal edge-pattern-solid flowchart-link LS-C2 LE-C3" id="L-C2-C3-0" d="M1047.855,191L1047.855,195.167C1047.855,199.333,1047.855,207.667,1047.855,216C1047.855,224.333,1047.855,232.667,1047.855,240.117C1047.855,247.567,1047.855,254.133,1047.855,257.417L1047.855,260.7"/><path marker-end="url(#mermaid-svg-1752737681172-qh2pgf4y5_flowchart-pointEnd)" style="fill:none;" class="edge-thickness-normal edge-pattern-solid flowchart-link LS-C3 LE-N1" id="L-C3-N1-0" d="M1047.855,324L1047.855,328.167C1047.855,332.333,1047.855,340.667,901.066,353.569C754.277,366.472,460.698,383.944,313.908,392.68L167.119,401.416"/><path marker-end="url(#mermaid-svg-1752737681172-qh2pgf4y5_flowchart-pointEnd)" style="fill:none;" class="edge-thickness-normal edge-pattern-solid flowchart-link LS-N1 LE-S3" id="L-N1-S3-0" d="M98.5,425L98.5,431.167C98.5,437.333,98.5,449.667,98.5,460C98.5,470.333,98.5,478.667,98.5,487C98.5,495.333,98.5,503.667,98.5,511.117C98.5,518.567,98.5,525.133,98.5,528.417L98.5,531.7"/><path marker-end="url(#mermaid-svg-1752737681172-qh2pgf4y5_flowchart-pointEnd)" style="fill:none;" class="edge-thickness-normal edge-pattern-solid flowchart-link LS-S3 LE-S2" id="L-S3-S2-0" d="M98.5,595L98.5,599.167C98.5,603.333,98.5,611.667,98.5,619.117C98.5,626.567,98.5,633.133,98.5,636.417L98.5,639.7"/><path marker-end="url(#mermaid-svg-1752737681172-qh2pgf4y5_flowchart-pointEnd)" style="fill:none;" class="edge-thickness-normal edge-pattern-solid flowchart-link LS-S2 LE-S1" id="L-S2-S1-0" d="M98.5,703L98.5,707.167C98.5,711.333,98.5,719.667,98.5,727.533C98.5,735.4,98.5,742.8,98.5,746.5L98.5,750.2"/><path marker-end="url(#mermaid-svg-1752737681172-qh2pgf4y5_flowchart-pointEnd)" style="fill:none;" class="edge-thickness-normal edge-pattern-solid flowchart-link LS-C4 LE-N2" id="L-C4-N2-0" d="M1420.285,324L1420.285,328.167C1420.285,332.333,1420.285,340.667,1248.751,353.691C1077.216,366.715,734.147,384.43,562.613,393.287L391.078,402.144"/><path marker-end="url(#mermaid-svg-1752737681172-qh2pgf4y5_flowchart-pointEnd)" style="fill:none;" class="edge-thickness-normal edge-pattern-solid flowchart-link LS-N2 LE-S4" id="L-N2-S4-0" d="M347.751,425L354.601,431.167C361.451,437.333,375.151,449.667,382.001,460C388.852,470.333,388.852,478.667,388.852,487C388.852,495.333,388.852,503.667,388.852,511.117C388.852,518.567,388.852,525.133,388.852,528.417L388.852,531.7"/><path marker-end="url(#mermaid-svg-1752737681172-qh2pgf4y5_flowchart-pointEnd)" style="fill:none;" class="edge-thickness-normal edge-pattern-solid flowchart-link LS-S4 LE-S5" id="L-S4-S5-0" d="M388.852,595L388.852,599.167C388.852,603.333,388.852,611.667,388.852,619.117C388.852,626.567,388.852,633.133,388.852,636.417L388.852,639.7"/><path marker-end="url(#mermaid-svg-1752737681172-qh2pgf4y5_flowchart-pointEnd)" style="fill:none;" class="edge-thickness-normal edge-pattern-solid flowchart-link LS-S5 LE-S6" id="L-S5-S6-0" d="M388.852,703L388.852,707.167C388.852,711.333,388.852,719.667,379.876,728.278C370.901,736.889,352.95,745.777,343.975,750.222L335,754.666"/><path marker-end="url(#mermaid-svg-1752737681172-qh2pgf4y5_flowchart-pointEnd)" style="fill:none;" class="edge-thickness-normal edge-pattern-solid flowchart-link LS-S6 LE-N2" id="L-S6-N2-0" d="M250.492,755.5L246.658,750.917C242.824,746.333,235.156,737.167,231.322,723.583C227.488,710,227.488,692,227.488,674C227.488,656,227.488,638,227.488,620C227.488,602,227.488,584,227.488,566C227.488,548,227.488,530,227.488,516.833C227.488,503.667,227.488,495.333,227.488,487C227.488,478.667,227.488,470.333,237.484,460.439C247.479,450.545,267.47,439.09,277.465,433.363L287.461,427.635"/><path marker-end="url(#mermaid-svg-1752737681172-qh2pgf4y5_flowchart-pointEnd)" style="fill:none;" class="edge-thickness-normal edge-pattern-solid flowchart-link LS-N2 LE-C5" id="L-N2-C5-0" d="M385.785,412.701L453.896,420.918C522.008,429.134,658.23,445.567,769.046,457.95C879.861,470.333,965.268,478.667,1007.972,487C1050.676,495.333,1050.676,503.667,1050.676,511.117C1050.676,518.567,1050.676,525.133,1050.676,528.417L1050.676,531.7"/><path marker-end="url(#mermaid-svg-1752737681172-qh2pgf4y5_flowchart-pointEnd)" style="fill:none;" class="edge-thickness-normal edge-pattern-solid flowchart-link LS-C6 LE-N2" id="L-C6-N2-0" d="M1229.121,324L1229.121,328.167C1229.121,332.333,1229.121,340.667,1089.447,353.572C949.772,366.478,670.424,383.956,530.749,392.695L391.075,401.434"/><path marker-end="url(#mermaid-svg-1752737681172-qh2pgf4y5_flowchart-pointEnd)" style="fill:none;" class="edge-thickness-normal edge-pattern-solid flowchart-link LS-N2 LE-S6" id="L-N2-S6-0" d="M308.371,425L302.767,431.167C297.164,437.333,285.957,449.667,280.353,460C274.75,470.333,274.75,478.667,274.75,487C274.75,495.333,274.75,503.667,274.75,516.833C274.75,530,274.75,548,274.75,566C274.75,584,274.75,602,274.75,620C274.75,638,274.75,656,274.75,674C274.75,692,274.75,710,274.75,722.7C274.75,735.4,274.75,742.8,274.75,746.5L274.75,750.2"/><path marker-end="url(#mermaid-svg-1752737681172-qh2pgf4y5_flowchart-pointEnd)" style="fill:none;" class="edge-thickness-normal edge-pattern-solid flowchart-link LS-S6 LE-C7" id="L-S6-C7-0" d="M274.75,813.5L274.75,818.083C274.75,822.667,274.75,831.833,398.738,840.583C522.727,849.333,770.703,857.667,894.691,865.117C1018.68,872.567,1018.68,879.133,1018.68,882.417L1018.68,885.7"/><path marker-end="url(#mermaid-svg-1752737681172-qh2pgf4y5_flowchart-pointEnd)" style="fill:none;" class="edge-thickness-normal edge-pattern-solid flowchart-link LS-C8 LE-C9" id="L-C8-C9-0" d="M1354.996,807.317L1340.309,812.931C1325.621,818.545,1296.246,829.772,1281.559,839.553C1266.871,849.333,1266.871,857.667,1262.371,865.447C1257.871,873.227,1248.871,880.454,1244.371,884.068L1239.871,887.682"/><path marker-end="url(#mermaid-svg-1752737681172-qh2pgf4y5_flowchart-pointEnd)" style="fill:none;" class="edge-thickness-normal edge-pattern-solid flowchart-link LS-C9 LE-N3" id="L-C9-N3-0" d="M1170.375,891L1166.173,886.833C1161.97,882.667,1153.565,874.333,1149.363,866C1145.16,857.667,1145.16,849.333,1145.16,835.75C1145.16,822.167,1145.16,803.333,1145.16,784.5C1145.16,765.667,1145.16,746.833,1145.16,728.417C1145.16,710,1145.16,692,1145.16,674C1145.16,656,1145.16,638,1145.16,620C1145.16,602,1145.16,584,1145.16,566C1145.16,548,1145.16,530,1145.16,516.833C1145.16,503.667,1145.16,495.333,1090.042,487C1034.924,478.667,924.689,470.333,869.571,456.75C814.453,443.167,814.453,424.333,814.453,405.5C814.453,386.667,814.453,367.833,814.744,353.548C815.035,339.264,815.617,329.527,815.908,324.659L816.198,319.791"/><path marker-end="url(#mermaid-svg-1752737681172-qh2pgf4y5_flowchart-pointEnd)" style="fill:none;" class="edge-thickness-normal edge-pattern-solid flowchart-link LS-N3 LE-S7" id="L-N3-S7-0" d="M802.07,314.5L797.467,320.25C792.864,326,783.659,337.5,779.056,352.667C774.453,367.833,774.453,386.667,774.453,405.5C774.453,424.333,774.453,443.167,774.453,456.75C774.453,470.333,774.453,478.667,774.453,487C774.453,495.333,774.453,503.667,774.453,511.117C774.453,518.567,774.453,525.133,774.453,528.417L774.453,531.7"/><path marker-end="url(#mermaid-svg-1752737681172-qh2pgf4y5_flowchart-pointEnd)" style="fill:none;" class="edge-thickness-normal edge-pattern-solid flowchart-link LS-S7 LE-S9" id="L-S7-S9-0" d="M774.453,595L774.453,599.167C774.453,603.333,774.453,611.667,774.453,619.117C774.453,626.567,774.453,633.133,774.453,636.417L774.453,639.7"/><path marker-end="url(#mermaid-svg-1752737681172-qh2pgf4y5_flowchart-pointEnd)" style="fill:none;" class="edge-thickness-normal edge-pattern-solid flowchart-link LS-C8 LE-C10" id="L-C8-C10-0" d="M1414.691,816L1414.691,820.167C1414.691,824.333,1414.691,832.667,1414.691,841C1414.691,849.333,1414.691,857.667,1412.53,865.253C1410.37,872.84,1406.048,879.68,1403.887,883.1L1401.726,886.52"/><path marker-end="url(#mermaid-svg-1752737681172-qh2pgf4y5_flowchart-pointEnd)" style="fill:none;" class="edge-thickness-normal edge-pattern-solid flowchart-link LS-C10 LE-N3" id="L-C10-N3-0" d="M1330.25,891L1323.02,886.833C1315.791,882.667,1301.331,874.333,1294.101,866C1286.871,857.667,1286.871,849.333,1286.871,835.75C1286.871,822.167,1286.871,803.333,1286.871,784.5C1286.871,765.667,1286.871,746.833,1286.871,728.417C1286.871,710,1286.871,692,1286.871,674C1286.871,656,1286.871,638,1286.871,620C1286.871,602,1286.871,584,1286.871,566C1286.871,548,1286.871,530,1286.871,516.833C1286.871,503.667,1286.871,495.333,1211.468,487C1136.065,478.667,985.259,470.333,909.856,456.75C834.453,443.167,834.453,424.333,834.453,405.5C834.453,386.667,834.453,367.833,832.929,353.51C831.405,339.187,828.357,329.374,826.833,324.468L825.309,319.561"/><path marker-end="url(#mermaid-svg-1752737681172-qh2pgf4y5_flowchart-pointEnd)" style="fill:none;" class="edge-thickness-normal edge-pattern-solid flowchart-link LS-N3 LE-S8" id="L-N3-S8-0" d="M762.18,308.366L734.059,315.138C705.938,321.911,649.695,335.455,621.574,351.644C593.453,367.833,593.453,386.667,593.453,405.5C593.453,424.333,593.453,443.167,593.453,456.75C593.453,470.333,593.453,478.667,593.453,487C593.453,495.333,593.453,503.667,593.453,511.117C593.453,518.567,593.453,525.133,593.453,528.417L593.453,531.7"/><path marker-end="url(#mermaid-svg-1752737681172-qh2pgf4y5_flowchart-pointEnd)" style="fill:none;" class="edge-thickness-normal edge-pattern-solid flowchart-link LS-S8 LE-S11" id="L-S8-S11-0" d="M593.453,595L593.453,599.167C593.453,603.333,593.453,611.667,593.453,619.117C593.453,626.567,593.453,633.133,593.453,636.417L593.453,639.7"/><path marker-end="url(#mermaid-svg-1752737681172-qh2pgf4y5_flowchart-pointEnd)" style="fill:none;" class="edge-thickness-normal edge-pattern-solid flowchart-link LS-S9 LE-S12" id="L-S9-S12-0" d="M731.222,703L725.01,707.167C718.799,711.333,706.376,719.667,692.782,727.984C679.188,736.301,664.422,744.602,657.04,748.752L649.657,752.903"/><path marker-end="url(#mermaid-svg-1752737681172-qh2pgf4y5_flowchart-pointEnd)" style="fill:none;" class="edge-thickness-normal edge-pattern-solid flowchart-link LS-S11 LE-S12" id="L-S11-S12-0" d="M593.453,703L593.453,707.167C593.453,711.333,593.453,719.667,593.453,727.533C593.453,735.4,593.453,742.8,593.453,746.5L593.453,750.2"/><path marker-end="url(#mermaid-svg-1752737681172-qh2pgf4y5_flowchart-pointEnd)" style="fill:none;" class="edge-thickness-normal edge-pattern-solid flowchart-link LS-S12 LE-N3" id="L-S12-N3-0" d="M537.953,755.566L529.141,750.971C520.328,746.377,502.703,737.189,493.891,723.594C485.078,710,485.078,692,485.078,674C485.078,656,485.078,638,485.078,620C485.078,602,485.078,584,485.078,566C485.078,548,485.078,530,485.078,516.833C485.078,503.667,485.078,495.333,485.078,487C485.078,478.667,485.078,470.333,485.078,456.75C485.078,443.167,485.078,424.333,485.078,405.5C485.078,386.667,485.078,367.833,530.39,351.06C575.701,334.287,666.325,319.573,711.637,312.217L756.948,304.86"/><path marker-end="url(#mermaid-svg-1752737681172-qh2pgf4y5_flowchart-pointEnd)" style="fill:none;" class="edge-thickness-normal edge-pattern-solid flowchart-link LS-N3 LE-C11" id="L-N3-C11-0" d="M830.959,314.5L834.875,320.25C838.79,326,846.622,337.5,933.782,351.645C1020.941,365.79,1187.43,382.581,1270.674,390.976L1353.918,399.371"/><path marker-end="url(#mermaid-svg-1752737681172-qh2pgf4y5_flowchart-pointEnd)" style="fill:none;" class="edge-thickness-normal edge-pattern-solid flowchart-link LS-C11 LE-C12" id="L-C11-C12-0" d="M1414.691,437L1414.691,441.167C1414.691,445.333,1414.691,453.667,1414.691,462C1414.691,470.333,1414.691,478.667,1414.691,487C1414.691,495.333,1414.691,503.667,1414.691,511.117C1414.691,518.567,1414.691,525.133,1414.691,528.417L1414.691,531.7"/><path marker-end="url(#mermaid-svg-1752737681172-qh2pgf4y5_flowchart-pointEnd)" style="fill:none;" class="edge-thickness-normal edge-pattern-solid flowchart-link LS-C12 LE-C13" id="L-C12-C13-0" d="M1414.691,595L1414.691,599.167C1414.691,603.333,1414.691,611.667,1414.691,619.117C1414.691,626.567,1414.691,633.133,1414.691,636.417L1414.691,639.7"/><path marker-end="url(#mermaid-svg-1752737681172-qh2pgf4y5_flowchart-pointEnd)" style="fill:none;" class="edge-thickness-normal edge-pattern-solid flowchart-link LS-C13 LE-C8" id="L-C13-C8-0" d="M1414.691,703L1414.691,707.167C1414.691,711.333,1414.691,719.667,1414.691,727.117C1414.691,734.567,1414.691,741.133,1414.691,744.417L1414.691,747.7"/><path marker-end="url(#mermaid-svg-1752737681172-qh2pgf4y5_flowchart-pointEnd)" style="fill:none;" class="edge-thickness-normal edge-pattern-solid flowchart-link LS-S9 LE-S13" id="L-S9-S13-0" d="M779.823,703L780.595,707.167C781.367,711.333,782.91,719.667,783.682,727.533C784.453,735.4,784.453,742.8,784.453,746.5L784.453,750.2"/></g><g class="edgeLabels"><g class="edgeLabel"><g transform="translate(0, 0)" class="label"><foreignObject height="0" width="0"><div style="display: inline-block; white-space: nowrap;" xmlns="http://www.w3.org/1999/xhtml"><span class="edgeLabel"></span></div></foreignObject></g></g><g class="edgeLabel"><g transform="translate(0, 0)" class="label"><foreignObject height="0" width="0"><div style="display: inline-block; white-space: nowrap;" xmlns="http://www.w3.org/1999/xhtml"><span class="edgeLabel"></span></div></foreignObject></g></g><g class="edgeLabel"><g transform="translate(0, 0)" class="label"><foreignObject height="0" width="0"><div style="display: inline-block; white-space: nowrap;" xmlns="http://www.w3.org/1999/xhtml"><span class="edgeLabel"></span></div></foreignObject></g></g><g class="edgeLabel"><g transform="translate(0, 0)" class="label"><foreignObject height="0" width="0"><div style="display: inline-block; white-space: nowrap;" xmlns="http://www.w3.org/1999/xhtml"><span class="edgeLabel"></span></div></foreignObject></g></g><g class="edgeLabel"><g transform="translate(0, 0)" class="label"><foreignObject height="0" width="0"><div style="display: inline-block; white-space: nowrap;" xmlns="http://www.w3.org/1999/xhtml"><span class="edgeLabel"></span></div></foreignObject></g></g><g class="edgeLabel"><g transform="translate(0, 0)" class="label"><foreignObject height="0" width="0"><div style="display: inline-block; white-space: nowrap;" xmlns="http://www.w3.org/1999/xhtml"><span class="edgeLabel"></span></div></foreignObject></g></g><g class="edgeLabel"><g transform="translate(0, 0)" class="label"><foreignObject height="0" width="0"><div style="display: inline-block; white-space: nowrap;" xmlns="http://www.w3.org/1999/xhtml"><span class="edgeLabel"></span></div></foreignObject></g></g><g class="edgeLabel"><g transform="translate(0, 0)" class="label"><foreignObject height="0" width="0"><div style="display: inline-block; white-space: nowrap;" xmlns="http://www.w3.org/1999/xhtml"><span class="edgeLabel"></span></div></foreignObject></g></g><g class="edgeLabel"><g transform="translate(0, 0)" class="label"><foreignObject height="0" width="0"><div style="display: inline-block; white-space: nowrap;" xmlns="http://www.w3.org/1999/xhtml"><span class="edgeLabel"></span></div></foreignObject></g></g><g class="edgeLabel"><g transform="translate(0, 0)" class="label"><foreignObject height="0" width="0"><div style="display: inline-block; white-space: nowrap;" xmlns="http://www.w3.org/1999/xhtml"><span class="edgeLabel"></span></div></foreignObject></g></g><g class="edgeLabel"><g transform="translate(0, 0)" class="label"><foreignObject height="0" width="0"><div style="display: inline-block; white-space: nowrap;" xmlns="http://www.w3.org/1999/xhtml"><span class="edgeLabel"></span></div></foreignObject></g></g><g class="edgeLabel"><g transform="translate(0, 0)" class="label"><foreignObject height="0" width="0"><div style="display: inline-block; white-space: nowrap;" xmlns="http://www.w3.org/1999/xhtml"><span class="edgeLabel"></span></div></foreignObject></g></g><g class="edgeLabel"><g transform="translate(0, 0)" class="label"><foreignObject height="0" width="0"><div style="display: inline-block; white-space: nowrap;" xmlns="http://www.w3.org/1999/xhtml"><span class="edgeLabel"></span></div></foreignObject></g></g><g class="edgeLabel"><g transform="translate(0, 0)" class="label"><foreignObject height="0" width="0"><div style="display: inline-block; white-space: nowrap;" xmlns="http://www.w3.org/1999/xhtml"><span class="edgeLabel"></span></div></foreignObject></g></g><g class="edgeLabel"><g transform="translate(0, 0)" class="label"><foreignObject height="0" width="0"><div style="display: inline-block; white-space: nowrap;" xmlns="http://www.w3.org/1999/xhtml"><span class="edgeLabel"></span></div></foreignObject></g></g><g class="edgeLabel"><g transform="translate(0, 0)" class="label"><foreignObject height="0" width="0"><div style="display: inline-block; white-space: nowrap;" xmlns="http://www.w3.org/1999/xhtml"><span class="edgeLabel"></span></div></foreignObject></g></g><g class="edgeLabel"><g transform="translate(0, 0)" class="label"><foreignObject height="0" width="0"><div style="display: inline-block; white-space: nowrap;" xmlns="http://www.w3.org/1999/xhtml"><span class="edgeLabel"></span></div></foreignObject></g></g><g class="edgeLabel"><g transform="translate(0, 0)" class="label"><foreignObject height="0" width="0"><div style="display: inline-block; white-space: nowrap;" xmlns="http://www.w3.org/1999/xhtml"><span class="edgeLabel"></span></div></foreignObject></g></g><g class="edgeLabel"><g transform="translate(0, 0)" class="label"><foreignObject height="0" width="0"><div style="display: inline-block; white-space: nowrap;" xmlns="http://www.w3.org/1999/xhtml"><span class="edgeLabel"></span></div></foreignObject></g></g><g class="edgeLabel"><g transform="translate(0, 0)" class="label"><foreignObject height="0" width="0"><div style="display: inline-block; white-space: nowrap;" xmlns="http://www.w3.org/1999/xhtml"><span class="edgeLabel"></span></div></foreignObject></g></g><g class="edgeLabel"><g transform="translate(0, 0)" class="label"><foreignObject height="0" width="0"><div style="display: inline-block; white-space: nowrap;" xmlns="http://www.w3.org/1999/xhtml"><span class="edgeLabel"></span></div></foreignObject></g></g><g class="edgeLabel"><g transform="translate(0, 0)" class="label"><foreignObject height="0" width="0"><div style="display: inline-block; white-space: nowrap;" xmlns="http://www.w3.org/1999/xhtml"><span class="edgeLabel"></span></div></foreignObject></g></g><g class="edgeLabel"><g transform="translate(0, 0)" class="label"><foreignObject height="0" width="0"><div style="display: inline-block; white-space: nowrap;" xmlns="http://www.w3.org/1999/xhtml"><span class="edgeLabel"></span></div></foreignObject></g></g><g class="edgeLabel"><g transform="translate(0, 0)" class="label"><foreignObject height="0" width="0"><div style="display: inline-block; white-space: nowrap;" xmlns="http://www.w3.org/1999/xhtml"><span class="edgeLabel"></span></div></foreignObject></g></g><g class="edgeLabel"><g transform="translate(0, 0)" class="label"><foreignObject height="0" width="0"><div style="display: inline-block; white-space: nowrap;" xmlns="http://www.w3.org/1999/xhtml"><span class="edgeLabel"></span></div></foreignObject></g></g><g class="edgeLabel"><g transform="translate(0, 0)" class="label"><foreignObject height="0" width="0"><div style="display: inline-block; white-space: nowrap;" xmlns="http://www.w3.org/1999/xhtml"><span class="edgeLabel"></span></div></foreignObject></g></g><g class="edgeLabel"><g transform="translate(0, 0)" class="label"><foreignObject height="0" width="0"><div style="display: inline-block; white-space: nowrap;" xmlns="http://www.w3.org/1999/xhtml"><span class="edgeLabel"></span></div></foreignObject></g></g><g class="edgeLabel"><g transform="translate(0, 0)" class="label"><foreignObject height="0" width="0"><div style="display: inline-block; white-space: nowrap;" xmlns="http://www.w3.org/1999/xhtml"><span class="edgeLabel"></span></div></foreignObject></g></g><g class="edgeLabel"><g transform="translate(0, 0)" class="label"><foreignObject height="0" width="0"><div style="display: inline-block; white-space: nowrap;" xmlns="http://www.w3.org/1999/xhtml"><span class="edgeLabel"></span></div></foreignObject></g></g><g class="edgeLabel"><g transform="translate(0, 0)" class="label"><foreignObject height="0" width="0"><div style="display: inline-block; white-space: nowrap;" xmlns="http://www.w3.org/1999/xhtml"><span class="edgeLabel"></span></div></foreignObject></g></g><g class="edgeLabel"><g transform="translate(0, 0)" class="label"><foreignObject height="0" width="0"><div style="display: inline-block; white-space: nowrap;" xmlns="http://www.w3.org/1999/xhtml"><span class="edgeLabel"></span></div></foreignObject></g></g></g><g class="nodes"><g transform="translate(98.5, 405.5)" id="flowchart-N1-364" class="node default default flowchart-label"><rect height="39" width="126.65625" y="-19.5" x="-63.328125" ry="0" rx="0" style="" class="basic label-container"/><g transform="translate(-55.828125, -12)" style="" class="label"><rect/><foreignObject height="24" width="111.65625"><div style="display: inline-block; white-space: nowrap;" xmlns="http://www.w3.org/1999/xhtml"><span class="nodeLabel">TCP Socket连接</span></div></foreignObject></g></g><g transform="translate(326.08984375, 405.5)" id="flowchart-N2-365" class="node default default flowchart-label"><rect height="39" width="119.390625" y="-19.5" x="-59.6953125" ry="0" rx="0" style="" class="basic label-container"/><g transform="translate(-52.1953125, -12)" style="" class="label"><rect/><foreignObject height="24" width="104.390625"><div style="display: inline-block; white-space: nowrap;" xmlns="http://www.w3.org/1999/xhtml"><span class="nodeLabel">消息编码/解码</span></div></foreignObject></g></g><g transform="translate(817.6796875, 295)" id="flowchart-N3-366" class="node default default flowchart-label"><rect height="39" width="111" y="-19.5" x="-55.5" ry="0" rx="0" style="" class="basic label-container"/><g transform="translate(-48, -12)" style="" class="label"><rect/><foreignObject height="24" width="96"><div style="display: inline-block; white-space: nowrap;" xmlns="http://www.w3.org/1999/xhtml"><span class="nodeLabel">消息队列处理</span></div></foreignObject></g></g><g transform="translate(98.5, 784.5)" id="flowchart-S1-351" class="node default default flowchart-label"><rect height="58" width="107.953125" y="-29" x="-53.9765625" ry="0" rx="0" style="" class="basic label-container"/><g transform="translate(-46.4765625, -21.5)" style="" class="label"><rect/><foreignObject height="43" width="92.953125"><div style="display: inline-block; white-space: nowrap;" xmlns="http://www.w3.org/1999/xhtml"><span class="nodeLabel">启动服务器<br />M2Server.dpr</span></div></foreignObject></g></g><g transform="translate(98.5, 674)" id="flowchart-S2-352" class="node default default flowchart-label"><rect height="58" width="127" y="-29" x="-63.5" ry="0" rx="0" style="" class="basic label-container"/><g transform="translate(-56, -21.5)" style="" class="label"><rect/><foreignObject height="43" width="112"><div style="display: inline-block; white-space: nowrap;" xmlns="http://www.w3.org/1999/xhtml"><span class="nodeLabel">初始化游戏引擎<br />svMain.pas</span></div></foreignObject></g></g><g transform="translate(98.5, 566)" id="flowchart-S3-353" class="node default default flowchart-label"><rect height="58" width="111" y="-29" x="-55.5" ry="0" rx="0" style="" class="basic label-container"/><g transform="translate(-48, -21.5)" style="" class="label"><rect/><foreignObject height="43" width="96"><div style="display: inline-block; white-space: nowrap;" xmlns="http://www.w3.org/1999/xhtml"><span class="nodeLabel">监听网络连接<br />RunSock.pas</span></div></foreignObject></g></g><g transform="translate(388.8515625, 566)" id="flowchart-S4-354" class="node default default flowchart-label"><rect height="58" width="122.453125" y="-29" x="-61.2265625" ry="0" rx="0" style="" class="basic label-container"/><g transform="translate(-53.7265625, -21.5)" style="" class="label"><rect/><foreignObject height="43" width="107.453125"><div style="display: inline-block; white-space: nowrap;" xmlns="http://www.w3.org/1999/xhtml"><span class="nodeLabel">验证用户身份<br />IdSrvClient.pas</span></div></foreignObject></g></g><g transform="translate(388.8515625, 674)" id="flowchart-S5-355" class="node default default flowchart-label"><rect height="58" width="111" y="-29" x="-55.5" ry="0" rx="0" style="" class="basic label-container"/><g transform="translate(-48, -21.5)" style="" class="label"><rect/><foreignObject height="43" width="96"><div style="display: inline-block; white-space: nowrap;" xmlns="http://www.w3.org/1999/xhtml"><span class="nodeLabel">加载角色数据<br />ObjPlay.pas</span></div></foreignObject></g></g><g transform="translate(274.75, 784.5)" id="flowchart-S6-356" class="node default default flowchart-label"><rect height="58" width="111" y="-29" x="-55.5" ry="0" rx="0" style="" class="basic label-container"/><g transform="translate(-48, -21.5)" style="" class="label"><rect/><foreignObject height="43" width="96"><div style="display: inline-block; white-space: nowrap;" xmlns="http://www.w3.org/1999/xhtml"><span class="nodeLabel">创建玩家对象<br />TPlayObject</span></div></foreignObject></g></g><g transform="translate(774.453125, 566)" id="flowchart-S7-357" class="node default default flowchart-label"><rect height="58" width="111" y="-29" x="-55.5" ry="0" rx="0" style="" class="basic label-container"/><g transform="translate(-48, -21.5)" style="" class="label"><rect/><foreignObject height="43" width="96"><div style="display: inline-block; white-space: nowrap;" xmlns="http://www.w3.org/1999/xhtml"><span class="nodeLabel">处理移动逻辑<br />ClientWalkXY</span></div></foreignObject></g></g><g transform="translate(593.453125, 566)" id="flowchart-S8-358" class="node default default flowchart-label"><rect height="58" width="111" y="-29" x="-55.5" ry="0" rx="0" style="" class="basic label-container"/><g transform="translate(-48, -21.5)" style="" class="label"><rect/><foreignObject height="43" width="96"><div style="display: inline-block; white-space: nowrap;" xmlns="http://www.w3.org/1999/xhtml"><span class="nodeLabel">处理攻击逻辑<br />ClientHitXY</span></div></foreignObject></g></g><g transform="translate(774.453125, 674)" id="flowchart-S9-359" class="node default default flowchart-label"><rect height="58" width="111" y="-29" x="-55.5" ry="0" rx="0" style="" class="basic label-container"/><g transform="translate(-48, -21.5)" style="" class="label"><rect/><foreignObject height="43" width="96"><div style="display: inline-block; white-space: nowrap;" xmlns="http://www.w3.org/1999/xhtml"><span class="nodeLabel">更新游戏世界<br />Envir.pas</span></div></foreignObject></g></g><g transform="translate(434.1015625, 784.5)" id="flowchart-S10-360" class="node default default flowchart-label"><rect height="58" width="107.703125" y="-29" x="-53.8515625" ry="0" rx="0" style="" class="basic label-container"/><g transform="translate(-46.3515625, -21.5)" style="" class="label"><rect/><foreignObject height="43" width="92.703125"><div style="display: inline-block; white-space: nowrap;" xmlns="http://www.w3.org/1999/xhtml"><span class="nodeLabel">处理NPC交互<br />ObjNpc.pas</span></div></foreignObject></g></g><g transform="translate(593.453125, 674)" id="flowchart-S11-361" class="node default default flowchart-label"><rect height="58" width="98.921875" y="-29" x="-49.4609375" ry="0" rx="0" style="" class="basic label-container"/><g transform="translate(-41.9609375, -21.5)" style="" class="label"><rect/><foreignObject height="43" width="83.921875"><div style="display: inline-block; white-space: nowrap;" xmlns="http://www.w3.org/1999/xhtml"><span class="nodeLabel">处理怪物AI<br />ObjMon.pas</span></div></foreignObject></g></g><g transform="translate(593.453125, 784.5)" id="flowchart-S12-362" class="node default default flowchart-label"><rect height="58" width="111" y="-29" x="-55.5" ry="0" rx="0" style="" class="basic label-container"/><g transform="translate(-48, -21.5)" style="" class="label"><rect/><foreignObject height="43" width="96"><div style="display: inline-block; white-space: nowrap;" xmlns="http://www.w3.org/1999/xhtml"><span class="nodeLabel">广播状态变化<br />SendRefMsg</span></div></foreignObject></g></g><g transform="translate(784.453125, 784.5)" id="flowchart-S13-363" class="node default default flowchart-label"><rect height="58" width="111" y="-29" x="-55.5" ry="0" rx="0" style="" class="basic label-container"/><g transform="translate(-48, -21.5)" style="" class="label"><rect/><foreignObject height="43" width="96"><div style="display: inline-block; white-space: nowrap;" xmlns="http://www.w3.org/1999/xhtml"><span class="nodeLabel">保存角色数据<br />LocalDB.pas</span></div></foreignObject></g></g><g transform="translate(1047.85546875, 54)" id="flowchart-C1-338" class="node default default flowchart-label"><rect height="58" width="79" y="-29" x="-39.5" ry="0" rx="0" style="" class="basic label-container"/><g transform="translate(-32, -21.5)" style="" class="label"><rect/><foreignObject height="43" width="64"><div style="display: inline-block; white-space: nowrap;" xmlns="http://www.w3.org/1999/xhtml"><span class="nodeLabel">启动游戏<br />mir2.dpr</span></div></foreignObject></g></g><g transform="translate(1047.85546875, 162)" id="flowchart-C2-339" class="node default default flowchart-label"><rect height="58" width="127" y="-29" x="-63.5" ry="0" rx="0" style="" class="basic label-container"/><g transform="translate(-56, -21.5)" style="" class="label"><rect/><foreignObject height="43" width="112"><div style="display: inline-block; white-space: nowrap;" xmlns="http://www.w3.org/1999/xhtml"><span class="nodeLabel">初始化图形界面<br />ClMain.pas</span></div></foreignObject></g></g><g transform="translate(1047.85546875, 295)" id="flowchart-C3-340" class="node default default flowchart-label"><rect height="58" width="114.296875" y="-29" x="-57.1484375" ry="0" rx="0" style="" class="basic label-container"/><g transform="translate(-49.6484375, -21.5)" style="" class="label"><rect/><foreignObject height="43" width="99.296875"><div style="display: inline-block; white-space: nowrap;" xmlns="http://www.w3.org/1999/xhtml"><span class="nodeLabel">连接网络<br />TClientSocket</span></div></foreignObject></g></g><g transform="translate(1420.28515625, 295)" id="flowchart-C4-341" class="node default default flowchart-label"><rect height="58" width="134.09375" y="-29" x="-67.046875" ry="0" rx="0" style="" class="basic label-container"/><g transform="translate(-59.546875, -21.5)" style="" class="label"><rect/><foreignObject height="43" width="119.09375"><div style="display: inline-block; white-space: nowrap;" xmlns="http://www.w3.org/1999/xhtml"><span class="nodeLabel">发送登录请求<br />CM_IDPASSWORD</span></div></foreignObject></g></g><g transform="translate(1050.67578125, 566)" id="flowchart-C5-342" class="node default default flowchart-label"><rect height="58" width="118.96875" y="-29" x="-59.484375" ry="0" rx="0" style="" class="basic label-container"/><g transform="translate(-51.984375, -21.5)" style="" class="label"><rect/><foreignObject height="43" width="103.96875"><div style="display: inline-block; white-space: nowrap;" xmlns="http://www.w3.org/1999/xhtml"><span class="nodeLabel">接收角色列表<br />SM_QUERYCHR</span></div></foreignObject></g></g><g transform="translate(1229.12109375, 295)" id="flowchart-C6-343" class="node default default flowchart-label"><rect height="58" width="148.234375" y="-29" x="-74.1171875" ry="0" rx="0" style="" class="basic label-container"/><g transform="translate(-66.6171875, -21.5)" style="" class="label"><rect/><foreignObject height="43" width="133.234375"><div style="display: inline-block; white-space: nowrap;" xmlns="http://www.w3.org/1999/xhtml"><span class="nodeLabel">选择角色<br />CM_SELECTSERVER</span></div></foreignObject></g></g><g transform="translate(1018.6796875, 920)" id="flowchart-C7-344" class="node default default flowchart-label"><rect height="58" width="111" y="-29" x="-55.5" ry="0" rx="0" style="" class="basic label-container"/><g transform="translate(-48, -21.5)" style="" class="label"><rect/><foreignObject height="43" width="96"><div style="display: inline-block; white-space: nowrap;" xmlns="http://www.w3.org/1999/xhtml"><span class="nodeLabel">进入游戏世界<br />PlayScn.pas</span></div></foreignObject></g></g><g transform="translate(1414.69140625, 784.5)" id="flowchart-C8-345" class="node default default flowchart-label"><rect height="63" width="119.390625" y="-31.5" x="-59.6953125" ry="0" rx="0" style="" class="basic label-container"/><g transform="translate(-52.1953125, -24)" style="" class="label"><rect/><foreignObject height="48" width="104.390625"><div style="display: inline-block; white-space: nowrap;" xmlns="http://www.w3.org/1999/xhtml"><span class="nodeLabel">处理用户输入<br />键盘/鼠标事件</span></div></foreignObject></g></g><g transform="translate(1199.625, 920)" id="flowchart-C9-346" class="node default default flowchart-label"><rect height="58" width="150.890625" y="-29" x="-75.4453125" ry="0" rx="0" style="" class="basic label-container"/><g transform="translate(-67.9453125, -21.5)" style="" class="label"><rect/><foreignObject height="43" width="135.890625"><div style="display: inline-block; white-space: nowrap;" xmlns="http://www.w3.org/1999/xhtml"><span class="nodeLabel">发送移动指令<br />CM_WALK/CM_RUN</span></div></foreignObject></g></g><g transform="translate(1380.5703125, 920)" id="flowchart-C10-347" class="node default default flowchart-label"><rect height="58" width="111" y="-29" x="-55.5" ry="0" rx="0" style="" class="basic label-container"/><g transform="translate(-48, -21.5)" style="" class="label"><rect/><foreignObject height="43" width="96"><div style="display: inline-block; white-space: nowrap;" xmlns="http://www.w3.org/1999/xhtml"><span class="nodeLabel">发送攻击指令<br />CM_HIT</span></div></foreignObject></g></g><g transform="translate(1414.69140625, 405.5)" id="flowchart-C11-348" class="node default default flowchart-label"><rect height="63" width="111" y="-31.5" x="-55.5" ry="0" rx="0" style="" class="basic label-container"/><g transform="translate(-48, -24)" style="" class="label"><rect/><foreignObject height="48" width="96"><div style="display: inline-block; white-space: nowrap;" xmlns="http://www.w3.org/1999/xhtml"><span class="nodeLabel">接收游戏状态<br />SM_*消息</span></div></foreignObject></g></g><g transform="translate(1414.69140625, 566)" id="flowchart-C12-349" class="node default default flowchart-label"><rect height="58" width="111" y="-29" x="-55.5" ry="0" rx="0" style="" class="basic label-container"/><g transform="translate(-48, -21.5)" style="" class="label"><rect/><foreignObject height="43" width="96"><div style="display: inline-block; white-space: nowrap;" xmlns="http://www.w3.org/1999/xhtml"><span class="nodeLabel">更新角色显示<br />Actor.pas</span></div></foreignObject></g></g><g transform="translate(1414.69140625, 674)" id="flowchart-C13-350" class="node default default flowchart-label"><rect height="58" width="111.59375" y="-29" x="-55.796875" ry="0" rx="0" style="" class="basic label-container"/><g transform="translate(-48.296875, -21.5)" style="" class="label"><rect/><foreignObject height="43" width="96.59375"><div style="display: inline-block; white-space: nowrap;" xmlns="http://www.w3.org/1999/xhtml"><span class="nodeLabel">渲染游戏画面<br />DrawScrn.pas</span></div></foreignObject></g></g></g></g></g></svg>